<svg height="480pt" viewBox="-135 0 479 480" width="480pt" xmlns="http://www.w3.org/2000/svg"><path d="m178.402344 72-36.949219-64h-73.90625l-36.949219 64 36.949219 64h73.90625zm-73.902344 40c-22.089844 0-40-17.910156-40-40s17.910156-40 40-40 40 17.910156 40 40-17.910156 40-40 40zm0 0" fill="#9bc9ff"/><path d="m8.5 216h192v-48h-192zm0 0" fill="#9bc9ff"/><g fill="#1e81ce"><path d="m146.101562 144h-83.203124l-41.597657-72 41.597657-72h83.203124l41.597657 72zm-73.90625-16h64.671876l32.328124-56-32.359374-56h-64.671876l-32.328124 56zm0 0"/><path d="m104.5 120c-26.507812 0-48-21.492188-48-48s21.492188-48 48-48 48 21.492188 48 48c-.027344 26.5-21.5 47.972656-48 48zm0-80c-17.671875 0-32 14.328125-32 32s14.328125 32 32 32 32-14.328125 32-32-14.328125-32-32-32zm0 0"/><path d="m208.5 160h-208v64h56v256h96v-256h56zm-72 304h-28.28125l28.28125-16.3125zm0-34.777344-60.304688 34.777344h-3.695312v-19.359375l64-36.96875zm0-40-64 36.9375v-21.519531l64-36.96875zm0-40-64 36.9375v-21.519531l64-36.96875zm0-40-64 36.9375v-21.519531l64-36.96875zm0-40-64 36.9375v-21.519531l64-36.96875zm0-40-64 36.9375v-42.160156h64zm56-21.222656h-176v-32h176zm0 0"/></g></svg>