<svg id="Capa_1" data-name="Capa 1" xmlns="http://www.w3.org/2000/svg" viewBox="0 0 1607.52 439.81"><defs><style>.cls-1{fill:#fff;}</style></defs><title>txt</title><path class="cls-1" d="M2434.06,762.61h160c127.44,0,134,100.77,134,211.61s-6.52,211.61-134,211.61h-160Zm110.25,343.79h21.93c42.68,0,48-17.78,48-132.18s-5.33-132.18-48-132.18h-21.93Z" transform="translate(-2434.06 -754.31)"/><path class="cls-1" d="M2770.14,762.61h110.25v423.22H2770.14Z" transform="translate(-2434.06 -754.31)"/><path class="cls-1" d="M3067.11,754.31c112.62,0,151.15,61.65,151.15,219.91s-38.53,219.91-151.15,219.91S2916,1132.48,2916,974.22,2954.49,754.31,3067.11,754.31Zm0,365.13c33.79,0,37.34-30.82,37.34-145.22S3100.89,829,3067.11,829s-37.34,30.82-37.34,145.22S3033.32,1119.44,3067.11,1119.44Z" transform="translate(-2434.06 -754.31)"/><path class="cls-1" d="M3258,762.61h123.29l71.13,260.81h1.19V762.61h103.14v423.22H3435.8l-73.5-261.4h-1.19v261.4H3258Z" transform="translate(-2434.06 -754.31)"/><path class="cls-1" d="M3604.73,762.61H3715v423.22H3604.73Z" transform="translate(-2434.06 -754.31)"/><path class="cls-1" d="M3931.92,891.23c0-48-8.89-62.24-30.23-62.24-33.79,0-37.34,30.82-37.34,145.22s3.56,145.22,37.34,145.22c27.27,0,33.19-23.71,33.19-103.73h106.69v31.42c0,118.55-69.35,147-139.89,147-123.88,0-151.15-62.24-151.15-219.91,0-161.82,36.75-219.91,151.15-219.91,99.58,0,136.92,52.16,136.92,134v26.67H3931.92Z" transform="translate(-2434.06 -754.31)"/></svg>